<!-- Placeholder SVG for app preview -->
<svg width="300" height="600" viewBox="0 0 300 600" xmlns="http://www.w3.org/2000/svg">
  <!-- Phone frame -->
  <rect x="20" y="20" width="260" height="560" rx="30" ry="30" fill="#1a1a1a" stroke="#333" stroke-width="2"/>
  
  <!-- Screen -->
  <rect x="30" y="50" width="240" height="500" rx="20" ry="20" fill="#f0f0f0"/>
  
  <!-- Status bar -->
  <rect x="30" y="50" width="240" height="30" rx="20" ry="20" fill="#000"/>
  <text x="150" y="70" text-anchor="middle" fill="white" font-size="12" font-family="Arial">9:41</text>
  
  <!-- App header -->
  <rect x="30" y="80" width="240" height="60" fill="linear-gradient(135deg, #667eea 0%, #764ba2 100%)"/>
  <text x="150" y="110" text-anchor="middle" fill="white" font-size="18" font-weight="bold" font-family="Arial">DESCO BD</text>
  
  <!-- Dashboard content -->
  <rect x="40" y="150" width="220" height="100" rx="10" fill="white" stroke="#e0e0e0"/>
  <text x="150" y="180" text-anchor="middle" fill="#333" font-size="14" font-family="Arial">Account Balance</text>
  <text x="150" y="200" text-anchor="middle" fill="#667eea" font-size="24" font-weight="bold" font-family="Arial">৳1,250</text>
  <text x="150" y="220" text-anchor="middle" fill="#666" font-size="12" font-family="Arial">Available Balance</text>
  
  <rect x="40" y="260" width="220" height="80" rx="10" fill="white" stroke="#e0e0e0"/>
  <text x="150" y="285" text-anchor="middle" fill="#333" font-size="14" font-family="Arial">This Month Usage</text>
  <text x="150" y="305" text-anchor="middle" fill="#764ba2" font-size="20" font-weight="bold" font-family="Arial">125 kWh</text>
  <text x="150" y="320" text-anchor="middle" fill="#666" font-size="12" font-family="Arial">Current Month</text>
  
  <!-- Navigation -->
  <rect x="30" y="480" width="240" height="70" rx="20" ry="20" fill="white" stroke="#e0e0e0"/>
  <circle cx="80" cy="515" r="15" fill="#667eea"/>
  <circle cx="150" cy="515" r="15" fill="#ccc"/>
  <circle cx="220" cy="515" r="15" fill="#ccc"/>
  
  <!-- App icon -->
  <rect x="50" y="30" width="30" height="30" rx="5" fill="#667eea"/>
  <text x="65" y="50" text-anchor="middle" fill="white" font-size="12" font-weight="bold" font-family="Arial">D</text>
</svg>
